<?xml version="1.0" encoding="UTF-8" standalone="no"?>
<svg
   xmlns:dc="http://purl.org/dc/elements/1.1/"
   xmlns:cc="http://creativecommons.org/ns#"
   xmlns:rdf="http://www.w3.org/1999/02/22-rdf-syntax-ns#"
   xmlns:svg="http://www.w3.org/2000/svg"
   xmlns="http://www.w3.org/2000/svg"
   viewBox="0 0 1133.8533 1133.8533"
   height="1133.8533"
   width="1133.8533"
   xml:space="preserve"
   id="svg2"
   version="1.1"><metadata
     id="metadata8"><rdf:RDF><cc:Work
         rdf:about=""><dc:format>image/svg+xml</dc:format><dc:type
           rdf:resource="http://purl.org/dc/dcmitype/StillImage" /></cc:Work></rdf:RDF></metadata><defs
     id="defs6" /><g
     transform="matrix(1.3333333,0,0,-1.3333333,0,1133.8533)"
     id="g10"><g
       transform="scale(0.1)"
       id="g12"><path
         id="path14"
         style="fill:#0e205d;fill-opacity:1;fill-rule:evenodd;stroke:none"
         d="m 4251.97,8226.36 c 2154.22,0 3903.17,-1780.87 3903.17,-3974.39 0,-2193.53 -1748.95,-3974.392 -3903.17,-3974.392 -2154.22,0 -3903.181,1780.862 -3903.181,3974.392 0,2193.52 1748.961,3974.39 3903.181,3974.39" /><path
         id="path16"
         style="fill:#0e205d;fill-opacity:1;fill-rule:evenodd;stroke:none"
         d="m 2827.59,7952.91 c 441.35,176.53 921.83,273.45 1424.38,273.45 2154.22,0 3903.17,-1780.87 3903.17,-3974.39 0,-2193.53 -1748.95,-3974.392 -3903.17,-3974.392 -744.52,0 -1440.64,212.723 -2032.94,581.852 142.48,117.55 282.82,237.93 421.38,360.7 624,552.92 1216.87,1157.16 1707.9,1838.78 298.32,414.1 543.96,850.15 715.36,1318.87 134.13,366.81 222.81,753.6 214.61,1142.25 -6,284.41 -66.55,564.21 -165.94,828.22 -115.53,306.86 -294.06,586.95 -524.61,815.65 -315.9,313.34 -717.76,523.19 -1140.65,652.31 -202.17,61.73 -409.62,106.21 -619.49,136.7" /><path
         id="path18"
         style="fill:#0e205d;fill-opacity:1;fill-rule:evenodd;stroke:none"
         d="m 1863.25,7394.18 c 279.57,7.01 560.45,-5.97 837.89,-43.67 405.37,-55.09 809.7,-165.68 1154.72,-383.95 161.86,-102.4 309.15,-229.93 428.86,-380.21 202.6,-254.33 317.45,-564.5 366.21,-885.94 52.41,-345.56 -19.31,-696.49 -131.42,-1027.56 C 4382.46,4268.13 4178.96,3888.72 3935.22,3534.99 3547.64,2972.49 3086.28,2475.03 2594.03,2008.31 2310.37,1739.36 2015.54,1480.79 1711.23,1236.04 877.359,1964.92 348.789,3046.09 348.789,4251.97 c 0,1277.55 593.27,2415.13 1514.461,3142.21" /><path
         id="path20"
         style="fill:#0e205d;fill-opacity:1;fill-rule:evenodd;stroke:none"
         d="m 1975.78,1024.11 47.03,-33.848 -29.71,20.978 -17.32,12.87" /><path
         id="path22"
         style="fill:#0e205d;fill-opacity:1;fill-rule:evenodd;stroke:none"
         d="m 2022.81,990.262 17.49,-12.352 -8.89,6.16 -8.6,6.192" /><path
         id="path24"
         style="fill:#3fa31a;fill-opacity:1;fill-rule:evenodd;stroke:none"
         d="m 2319.77,798.77 c 446.6,189.601 929.55,288.32 1413.95,288.32 673.38,0 1342.86,-191.692 1912.65,-547.668 -433.11,-169.262 -903.22,-261.844 -1394.4,-261.844 -702.71,0 -1362.3,189.5 -1932.2,521.192" /><path
         id="path26"
         style="fill:#3fa31a;fill-opacity:1;fill-rule:evenodd;stroke:none"
         d="m 1863.25,7394.18 c 279.57,7.01 560.45,-5.97 837.89,-43.67 405.37,-55.09 809.7,-165.68 1154.72,-383.95 161.86,-102.4 309.15,-229.93 428.86,-380.21 202.6,-254.33 317.45,-564.5 366.21,-885.94 52.41,-345.56 -19.31,-696.49 -131.42,-1027.56 C 4382.46,4268.13 4178.96,3888.72 3935.22,3534.99 3547.64,2972.49 3086.28,2475.03 2594.03,2008.31 2310.37,1739.36 2015.54,1480.79 1711.23,1236.04 877.359,1964.92 348.789,3046.09 348.789,4251.97 c 0,1277.55 593.27,2415.13 1514.461,3142.21" /><path
         id="path28"
         style="fill:#000000;fill-opacity:1;fill-rule:evenodd;stroke:none"
         d="m 2022.81,990.262 -29.71,20.978 -17.32,12.87 47.03,-33.848" /><path
         id="path30"
         style="fill:#808080;fill-opacity:1;fill-rule:evenodd;stroke:none"
         d="m 2022.81,990.262 17.49,-12.352 -8.89,6.16 -8.6,6.192" /><path
         id="path32"
         style="fill:#ffffff;fill-opacity:1;fill-rule:nonzero;stroke:none"
         d="m 972.078,3726.91 496.772,2480.36 h 487.07 L 1460.76,3726.91 H 972.078" /><path
         id="path34"
         style="fill:#ffffff;fill-opacity:1;fill-rule:nonzero;stroke:none"
         d="m 2946.23,3726.91 h -488.68 l 414.24,2065.84 h -695.8 l 82.52,414.52 h 1868.97 l -82.52,-414.52 h -686.1 L 2946.23,3726.91" /><path
         id="path36"
         style="fill:#ffffff;fill-opacity:1;fill-rule:nonzero;stroke:none"
         d="m 5264.62,2316 496.78,2480.43 h 810.72 c 175.85,0 298.83,-5.64 368.95,-16.92 116.51,-16.92 215.22,-50.76 296.13,-101.52 80.91,-50.76 142.41,-118.44 184.48,-203.04 42.07,-84.6 63.11,-178.22 63.11,-280.87 0,-137.61 -36.68,-256.89 -110.04,-357.85 -73.36,-100.95 -186.63,-177.37 -339.82,-229.26 121.9,-34.97 217.11,-97.29 285.61,-186.96 68.5,-89.68 102.76,-190.91 102.76,-303.71 0,-148.89 -40.46,-290.17 -121.37,-423.84 -80.91,-133.66 -192.56,-229.82 -334.97,-288.48 -142.4,-58.65 -337.12,-87.98 -584.17,-87.98 z m 783.21,1478.78 h 372.18 c 167.22,0 287.5,12.41 360.86,37.22 73.36,24.82 128.38,65.43 165.06,121.82 36.68,56.4 55.02,116.75 55.02,181.05 0,63.16 -17.26,115.05 -51.79,155.66 -34.52,40.6 -83.6,67.68 -147.25,81.21 -35.6,6.77 -121.37,10.15 -257.3,10.15 H 6165.95 Z M 5832.6,2715.3 h 470.9 c 197.42,0 329.84,13.26 397.27,39.76 67.42,26.51 121.36,70.22 161.82,131.13 40.45,60.91 60.68,125.21 60.68,192.89 0,82.34 -29.13,150.3 -87.38,203.88 -58.26,53.58 -155.35,80.37 -291.28,80.37 H 5962.06 L 5832.6,2715.3" /><path
         id="path38"
         style="fill:#ffffff;fill-opacity:1;fill-rule:evenodd;stroke:none"
         d="m 1747.69,1204.64 c 588.05,313.26 1249.05,485.09 1917.52,495.76 24.59,0.39 49.18,0.55 73.78,0.54 785.82,-1.41 1579.54,-227.36 2254.04,-655.18 55.52,-35.22 110.2,-71.748 164,-109.44 l 118.23,-83.019 C 6076.61,730.352 5866.37,624.949 5646.37,539.422 5076.58,895.398 4407.1,1087.09 3733.72,1087.09 c -484.4,0 -967.35,-98.719 -1413.95,-288.32 -202.85,117.98 -394.32,253.97 -572.08,405.87" /><path
         id="path40"
         style="fill:#ffffff;fill-opacity:1;fill-rule:evenodd;stroke:none"
         d="m 2827.59,7952.91 c 209.87,-30.49 417.32,-74.97 619.49,-136.7 422.89,-129.12 824.75,-338.97 1140.65,-652.31 230.55,-228.7 409.08,-508.79 524.61,-815.65 99.39,-264.01 159.94,-543.81 165.94,-828.22 8.2,-388.65 -80.48,-775.44 -214.61,-1142.25 -171.4,-468.72 -417.04,-904.77 -715.36,-1318.87 -491.03,-681.62 -1083.9,-1285.86 -1707.9,-1838.78 -138.56,-122.77 -278.9,-243.15 -421.38,-360.7 -179.33,111.699 -349.14,237.74 -507.8,376.61 304.31,244.75 599.14,503.32 882.8,772.27 492.25,466.72 953.61,964.18 1341.19,1526.68 243.74,353.73 447.24,733.14 584.29,1137.86 112.11,331.07 183.83,682 131.42,1027.56 -48.76,321.44 -163.61,631.61 -366.21,885.94 -119.71,150.28 -267,277.81 -428.86,380.21 -345.02,218.27 -749.35,328.86 -1154.72,383.95 -277.44,37.7 -558.32,50.68 -837.89,43.67 291.38,230.21 615.61,419.3 964.34,558.73" /></g></g></svg>